<?xml version="1.0" encoding="UTF-8"?>
<svg xmlns="http://www.w3.org/2000/svg" xmlns:xlink="http://www.w3.org/1999/xlink" width="720" height="432" viewBox="0 0 720 432">
<defs>
<g>
<g id="glyph-0-0">
<path d="M 8.75 -7.296875 C 8.734375 -9.484375 7.28125 -10.671875 4.625 -10.671875 C 2.109375 -10.671875 0.640625 -9.5 0.640625 -7.453125 C 0.640625 -5.8125 1.46875 -5.03125 3.59375 -4.625 L 5.078125 -4.34375 C 6.515625 -4.0625 7.046875 -3.65625 7.046875 -2.8125 C 7.046875 -1.9375 6.234375 -1.390625 4.921875 -1.390625 C 3.453125 -1.390625 2.640625 -2.015625 2.5625 -3.140625 L 0.46875 -3.140625 C 0.59375 -0.890625 2.125 0.328125 4.8125 0.328125 C 7.515625 0.328125 9.125 -0.921875 9.125 -3.0625 C 9.125 -4.71875 8.28125 -5.59375 6.34375 -5.96875 L 4.703125 -6.28125 C 3.15625 -6.578125 2.703125 -6.890625 2.703125 -7.65625 C 2.703125 -8.4375 3.40625 -8.953125 4.53125 -8.953125 C 5.890625 -8.953125 6.65625 -8.375 6.734375 -7.296875 Z M 8.75 -7.296875 "/>
</g>
<g id="glyph-0-1">
<path d="M 4.34375 -7.625 L 3.21875 -7.625 L 3.21875 -9.703125 L 1.203125 -9.703125 L 1.203125 -7.625 L 0.203125 -7.625 L 0.203125 -6.28125 L 1.203125 -6.28125 L 1.203125 -1.5 C 1.203125 -0.28125 1.84375 0.328125 3.171875 0.328125 C 3.625 0.328125 3.96875 0.28125 4.34375 0.171875 L 4.34375 -1.234375 C 4.140625 -1.203125 4.03125 -1.203125 3.875 -1.203125 C 3.34375 -1.203125 3.21875 -1.359375 3.21875 -2.046875 L 3.21875 -6.28125 L 4.34375 -6.28125 Z M 4.34375 -7.625 "/>
</g>
<g id="glyph-0-2">
<path d="M 7.546875 -3.25 C 7.5625 -3.421875 7.5625 -3.5 7.5625 -3.59375 C 7.5625 -4.375 7.453125 -5.09375 7.265625 -5.640625 C 6.734375 -7.0625 5.484375 -7.90625 3.921875 -7.90625 C 1.6875 -7.90625 0.3125 -6.296875 0.3125 -3.6875 C 0.3125 -1.203125 1.671875 0.328125 3.875 0.328125 C 5.625 0.328125 7.03125 -0.640625 7.484375 -2.1875 L 5.484375 -2.1875 C 5.25 -1.5625 4.6875 -1.203125 3.953125 -1.203125 C 3.375 -1.203125 2.90625 -1.453125 2.625 -1.890625 C 2.4375 -2.171875 2.359375 -2.515625 2.328125 -3.25 Z M 2.359375 -4.59375 C 2.5 -5.796875 3 -6.375 3.890625 -6.375 C 4.8125 -6.375 5.359375 -5.75 5.453125 -4.59375 Z M 2.359375 -4.59375 "/>
</g>
<g id="glyph-0-3">
<path d="M 2.859375 -7.78125 L 0.828125 -7.78125 L 0.828125 3.140625 L 2.859375 3.140625 L 2.859375 -0.921875 C 3.34375 -0.0625 4.03125 0.34375 5.015625 0.34375 C 6.890625 0.34375 8.265625 -1.40625 8.265625 -3.78125 C 8.265625 -4.875 7.953125 -5.96875 7.4375 -6.6875 C 6.921875 -7.421875 5.953125 -7.90625 5.015625 -7.90625 C 4.03125 -7.90625 3.34375 -7.484375 2.859375 -6.625 Z M 4.546875 -6.21875 C 5.578125 -6.21875 6.25 -5.25 6.25 -3.75 C 6.25 -2.3125 5.5625 -1.34375 4.546875 -1.34375 C 3.53125 -1.34375 2.859375 -2.3125 2.859375 -3.78125 C 2.859375 -5.25 3.53125 -6.21875 4.546875 -6.21875 Z M 4.546875 -6.21875 "/>
</g>
<g id="glyph-0-4">
</g>
<g id="glyph-0-5">
<path d="M 3.125 -4.5625 C 3.90625 -4.5625 3.953125 -4.5625 4.3125 -4.46875 C 4.984375 -4.28125 5.421875 -3.6875 5.421875 -2.9375 C 5.421875 -2.03125 4.78125 -1.390625 3.90625 -1.390625 C 2.953125 -1.390625 2.4375 -1.9375 2.375 -3 L 0.421875 -3 C 0.4375 -0.953125 1.75 0.328125 3.859375 0.328125 C 6.03125 0.328125 7.4375 -0.953125 7.4375 -2.9375 C 7.4375 -4.140625 6.921875 -4.90625 5.765625 -5.46875 C 6.703125 -6.0625 7.109375 -6.71875 7.109375 -7.65625 C 7.109375 -9.34375 5.828125 -10.4375 3.859375 -10.4375 C 2.375 -10.4375 1.234375 -9.78125 0.796875 -8.671875 C 0.609375 -8.1875 0.546875 -7.84375 0.546875 -7 L 2.421875 -7 C 2.4375 -7.546875 2.484375 -7.828125 2.578125 -8.078125 C 2.765625 -8.53125 3.234375 -8.796875 3.8125 -8.796875 C 4.625 -8.796875 5.078125 -8.3125 5.078125 -7.46875 C 5.078125 -6.421875 4.5 -5.921875 3.296875 -5.921875 L 3.125 -5.921875 Z M 3.125 -4.5625 "/>
</g>
<g id="glyph-0-6">
<path d="M 3.9375 -10.4375 C 2.84375 -10.4375 1.90625 -9.96875 1.28125 -9.125 C 0.6875 -8.328125 0.421875 -7.03125 0.421875 -5.046875 C 0.421875 -3.234375 0.640625 -1.953125 1.140625 -1.1875 C 1.75 -0.203125 2.734375 0.328125 3.9375 0.328125 C 5.046875 0.328125 5.953125 -0.109375 6.578125 -0.96875 C 7.15625 -1.75 7.453125 -3.0625 7.453125 -4.984375 C 7.453125 -6.859375 7.21875 -8.125 6.734375 -8.921875 C 6.125 -9.890625 5.125 -10.4375 3.9375 -10.4375 Z M 3.9375 -8.796875 C 4.453125 -8.796875 4.875 -8.515625 5.109375 -7.984375 C 5.3125 -7.546875 5.4375 -6.4375 5.4375 -5.03125 C 5.4375 -3.875 5.328125 -2.75 5.171875 -2.328125 C 4.9375 -1.734375 4.515625 -1.390625 3.9375 -1.390625 C 3.40625 -1.390625 3 -1.671875 2.75 -2.1875 C 2.546875 -2.625 2.4375 -3.6875 2.4375 -5.0625 C 2.4375 -6.265625 2.53125 -7.421875 2.6875 -7.84375 C 2.90625 -8.453125 3.359375 -8.796875 3.9375 -8.796875 Z M 3.9375 -8.796875 "/>
</g>
<g id="glyph-0-7">
<path d="M 2.59375 -10.5 L 1.4375 -10.5 L 1.4375 2.875 L 2.59375 2.875 Z M 2.59375 -10.5 "/>
</g>
<g id="glyph-0-8">
<path d="M 7.546875 -0.25 C 7.203125 -0.578125 7.09375 -0.8125 7.09375 -1.203125 L 7.09375 -5.515625 C 7.09375 -7.109375 6 -7.90625 3.90625 -7.90625 C 1.796875 -7.90625 0.703125 -7.015625 0.578125 -5.21875 L 2.515625 -5.21875 C 2.625 -6.015625 2.953125 -6.28125 3.953125 -6.28125 C 4.71875 -6.28125 5.109375 -6.015625 5.109375 -5.5 C 5.109375 -5.25 4.984375 -5.03125 4.765625 -4.890625 C 4.5 -4.75 4.5 -4.75 3.5 -4.59375 L 2.6875 -4.453125 C 1.15625 -4.1875 0.40625 -3.40625 0.40625 -2 C 0.40625 -0.609375 1.34375 0.328125 2.765625 0.328125 C 3.625 0.328125 4.40625 -0.03125 5.125 -0.78125 C 5.125 -0.375 5.171875 -0.234375 5.359375 0 L 7.546875 0 Z M 5.109375 -3.125 C 5.109375 -1.953125 4.53125 -1.296875 3.515625 -1.296875 C 2.84375 -1.296875 2.421875 -1.65625 2.421875 -2.234375 C 2.421875 -2.84375 2.734375 -3.125 3.578125 -3.296875 L 4.265625 -3.421875 C 4.796875 -3.53125 4.890625 -3.5625 5.109375 -3.671875 Z M 5.109375 -3.125 "/>
</g>
<g id="glyph-0-9">
<path d="M 0.90625 -7.78125 L 0.90625 0 L 2.921875 0 L 2.921875 -4.671875 C 2.921875 -5.59375 3.5625 -6.1875 4.546875 -6.1875 C 5.421875 -6.1875 5.84375 -5.71875 5.84375 -4.796875 L 5.84375 0 L 7.859375 0 L 7.859375 -5.21875 C 7.859375 -6.9375 6.921875 -7.90625 5.265625 -7.90625 C 4.203125 -7.90625 3.5 -7.53125 2.921875 -6.65625 L 2.921875 -7.78125 Z M 0.90625 -7.78125 "/>
</g>
<g id="glyph-0-10">
<path d="M 7.28125 -5.265625 C 7.25 -6.921875 5.984375 -7.90625 3.890625 -7.90625 C 1.921875 -7.90625 0.6875 -6.921875 0.6875 -5.3125 C 0.6875 -4.796875 0.84375 -4.34375 1.125 -4.046875 C 1.390625 -3.78125 1.640625 -3.640625 2.390625 -3.40625 L 4.796875 -2.65625 C 5.296875 -2.5 5.46875 -2.328125 5.46875 -2.015625 C 5.46875 -1.546875 4.90625 -1.25 3.96875 -1.25 C 3.4375 -1.25 3.046875 -1.34375 2.78125 -1.53125 C 2.5625 -1.6875 2.484375 -1.84375 2.390625 -2.265625 L 0.421875 -2.265625 C 0.46875 -0.546875 1.734375 0.328125 4.09375 0.328125 C 5.171875 0.328125 6 0.09375 6.5625 -0.359375 C 7.140625 -0.828125 7.484375 -1.546875 7.484375 -2.3125 C 7.484375 -3.3125 6.984375 -3.96875 5.96875 -4.265625 L 3.421875 -5 C 2.859375 -5.171875 2.703125 -5.28125 2.703125 -5.609375 C 2.703125 -6.03125 3.171875 -6.328125 3.875 -6.328125 C 4.84375 -6.328125 5.3125 -5.984375 5.328125 -5.265625 Z M 7.28125 -5.265625 "/>
</g>
<g id="glyph-0-11">
<path d="M 3.78125 -2.109375 L 1.625 -2.109375 L 1.625 0 L 3.78125 0 Z M 3.78125 -7.484375 L 1.625 -7.484375 L 1.625 -5.390625 L 3.78125 -5.390625 Z M 3.78125 -7.484375 "/>
</g>
<g id="glyph-0-12">
<path d="M 3.421875 -7.046875 L 3.421875 0 L 5.453125 0 L 5.453125 -10.21875 L 4.109375 -10.21875 C 3.78125 -9 2.734375 -8.390625 0.984375 -8.390625 L 0.984375 -7.046875 Z M 3.421875 -7.046875 "/>
</g>
<g id="glyph-0-13">
<path d="M 4.515625 -7.625 L 3.3125 -7.625 L 3.3125 -8.390625 C 3.3125 -8.78125 3.484375 -8.984375 3.859375 -8.984375 C 4.046875 -8.984375 4.234375 -8.96875 4.4375 -8.953125 L 4.4375 -10.453125 C 4 -10.484375 3.59375 -10.5 3.28125 -10.5 C 1.9375 -10.5 1.296875 -9.875 1.296875 -8.5625 L 1.296875 -7.625 L 0.203125 -7.625 L 0.203125 -6.28125 L 1.296875 -6.28125 L 1.296875 0 L 3.3125 0 L 3.3125 -6.28125 L 4.515625 -6.28125 Z M 4.515625 -7.625 "/>
</g>
<g id="glyph-0-14">
<path d="M 4.34375 -7.90625 C 1.953125 -7.90625 0.5 -6.34375 0.5 -3.78125 C 0.5 -1.21875 1.953125 0.328125 4.34375 0.328125 C 6.734375 0.328125 8.203125 -1.21875 8.203125 -3.734375 C 8.203125 -6.375 6.765625 -7.90625 4.34375 -7.90625 Z M 4.34375 -6.28125 C 5.453125 -6.28125 6.1875 -5.28125 6.1875 -3.765625 C 6.1875 -2.3125 5.4375 -1.296875 4.34375 -1.296875 C 3.25 -1.296875 2.515625 -2.296875 2.515625 -3.78125 C 2.515625 -5.28125 3.25 -6.28125 4.34375 -6.28125 Z M 4.34375 -6.28125 "/>
</g>
<g id="glyph-0-15">
<path d="M 5.828125 0 L 7.84375 0 L 7.84375 -10.5 L 5.828125 -10.5 L 5.828125 -6.765625 C 5.328125 -7.546875 4.671875 -7.90625 3.6875 -7.90625 C 1.828125 -7.90625 0.421875 -6.125 0.421875 -3.78125 C 0.421875 -2.71875 0.734375 -1.65625 1.25 -0.90625 C 1.78125 -0.140625 2.734375 0.328125 3.6875 0.328125 C 4.671875 0.328125 5.328125 -0.015625 5.828125 -0.796875 Z M 4.140625 -6.21875 C 5.15625 -6.21875 5.828125 -5.25 5.828125 -3.75 C 5.828125 -2.328125 5.140625 -1.359375 4.140625 -1.359375 C 3.125 -1.359375 2.4375 -2.34375 2.4375 -3.78125 C 2.4375 -5.234375 3.125 -6.21875 4.140625 -6.21875 Z M 4.140625 -6.21875 "/>
</g>
<g id="glyph-0-16">
<path d="M 7.375 -1.796875 L 3.046875 -1.796875 C 3.3125 -2.34375 3.625 -2.65625 5.125 -3.734375 C 6.90625 -5.03125 7.421875 -5.796875 7.421875 -7.1875 C 7.421875 -9.15625 6.046875 -10.4375 3.921875 -10.4375 C 1.796875 -10.4375 0.5625 -9.171875 0.5625 -7.015625 L 0.5625 -6.65625 L 2.5 -6.65625 L 2.5 -6.984375 C 2.5 -8.125 3.046875 -8.78125 3.96875 -8.78125 C 4.859375 -8.78125 5.40625 -8.171875 5.40625 -7.140625 C 5.40625 -6 5.0625 -5.59375 2.78125 -3.96875 C 1.046875 -2.796875 0.515625 -1.90625 0.4375 0 L 7.375 0 Z M 7.375 -1.796875 "/>
</g>
</g>
</defs>
<rect x="-72" y="-43.2" width="864" height="518.4" fill="rgb(100%, 100%, 100%)" fill-opacity="1"/>
<g fill="rgb(0%, 0%, 0%)" fill-opacity="1">
<use xlink:href="#glyph-0-0" x="272.398438" y="34.516602"/>
<use xlink:href="#glyph-0-1" x="282.398438" y="34.516602"/>
<use xlink:href="#glyph-0-2" x="287.398438" y="34.516602"/>
<use xlink:href="#glyph-0-3" x="295.398438" y="34.516602"/>
<use xlink:href="#glyph-0-4" x="304.398438" y="34.516602"/>
<use xlink:href="#glyph-0-5" x="308.398438" y="34.516602"/>
<use xlink:href="#glyph-0-6" x="316.398438" y="34.516602"/>
<use xlink:href="#glyph-0-6" x="324.398438" y="34.516602"/>
<use xlink:href="#glyph-0-4" x="332.398438" y="34.516602"/>
<use xlink:href="#glyph-0-7" x="336.398438" y="34.516602"/>
<use xlink:href="#glyph-0-4" x="340.398438" y="34.516602"/>
<use xlink:href="#glyph-0-8" x="344.398438" y="34.516602"/>
<use xlink:href="#glyph-0-9" x="352.398438" y="34.516602"/>
<use xlink:href="#glyph-0-1" x="361.398438" y="34.516602"/>
<use xlink:href="#glyph-0-10" x="366.398438" y="34.516602"/>
<use xlink:href="#glyph-0-11" x="374.398438" y="34.516602"/>
<use xlink:href="#glyph-0-4" x="379.398438" y="34.516602"/>
<use xlink:href="#glyph-0-12" x="383.398438" y="34.516602"/>
<use xlink:href="#glyph-0-6" x="391.398438" y="34.516602"/>
<use xlink:href="#glyph-0-6" x="399.398438" y="34.516602"/>
<use xlink:href="#glyph-0-4" x="407.398438" y="34.516602"/>
<use xlink:href="#glyph-0-7" x="411.398438" y="34.516602"/>
<use xlink:href="#glyph-0-4" x="415.398438" y="34.516602"/>
<use xlink:href="#glyph-0-13" x="419.398438" y="34.516602"/>
<use xlink:href="#glyph-0-14" x="424.398438" y="34.516602"/>
<use xlink:href="#glyph-0-14" x="433.398438" y="34.516602"/>
<use xlink:href="#glyph-0-15" x="442.398438" y="34.516602"/>
<use xlink:href="#glyph-0-11" x="451.398438" y="34.516602"/>
<use xlink:href="#glyph-0-4" x="456.398438" y="34.516602"/>
<use xlink:href="#glyph-0-16" x="460.398438" y="34.516602"/>
<use xlink:href="#glyph-0-16" x="468.398438" y="34.516602"/>
</g>
<path fill-rule="nonzero" fill="rgb(0%, 39.215686%, 0%)" fill-opacity="1" d="M 373.832031 310.625 C 373.832031 313.144531 370.050781 313.144531 370.050781 310.625 C 370.050781 308.105469 373.832031 308.105469 373.832031 310.625 "/>
<path fill-rule="nonzero" fill="rgb(0%, 39.215686%, 0%)" fill-opacity="1" d="M 377.523438 303.152344 C 377.523438 305.671875 373.742188 305.671875 373.742188 303.152344 C 373.742188 300.632812 377.523438 300.632812 377.523438 303.152344 "/>
<path fill-rule="nonzero" fill="rgb(0%, 39.215686%, 0%)" fill-opacity="1" d="M 376.730469 312.390625 C 376.730469 314.910156 372.953125 314.910156 372.953125 312.390625 C 372.953125 309.871094 376.730469 309.871094 376.730469 312.390625 "/>
<path fill-rule="nonzero" fill="rgb(0%, 39.215686%, 0%)" fill-opacity="1" d="M 378.839844 277.851562 C 378.839844 280.371094 375.058594 280.371094 375.058594 277.851562 C 375.058594 275.332031 378.839844 275.332031 378.839844 277.851562 "/>
<path fill-rule="nonzero" fill="rgb(0%, 39.215686%, 0%)" fill-opacity="1" d="M 375.0625 323.765625 C 375.0625 326.285156 371.285156 326.285156 371.285156 323.765625 C 371.285156 321.246094 375.0625 321.246094 375.0625 323.765625 "/>
<path fill-rule="nonzero" fill="rgb(0%, 39.215686%, 0%)" fill-opacity="1" d="M 371.496094 276.160156 C 371.496094 278.679688 367.714844 278.679688 367.714844 276.160156 C 367.714844 273.636719 371.496094 273.636719 371.496094 276.160156 "/>
<path fill-rule="nonzero" fill="rgb(0%, 39.215686%, 0%)" fill-opacity="1" d="M 373.878906 276.429688 C 373.878906 278.953125 370.097656 278.953125 370.097656 276.429688 C 370.097656 273.910156 373.878906 273.910156 373.878906 276.429688 "/>
<path fill-rule="nonzero" fill="rgb(0%, 39.215686%, 0%)" fill-opacity="1" d="M 376.265625 274.40625 C 376.265625 276.925781 372.484375 276.925781 372.484375 274.40625 C 372.484375 271.886719 376.265625 271.886719 376.265625 274.40625 "/>
<path fill-rule="nonzero" fill="rgb(0%, 39.215686%, 0%)" fill-opacity="1" d="M 374.503906 302.726562 C 374.503906 305.246094 370.722656 305.246094 370.722656 302.726562 C 370.722656 300.207031 374.503906 300.207031 374.503906 302.726562 "/>
<path fill-rule="nonzero" fill="rgb(0%, 39.215686%, 0%)" fill-opacity="1" d="M 374.328125 261.699219 C 374.328125 264.21875 370.546875 264.21875 370.546875 261.699219 C 370.546875 259.179688 374.328125 259.179688 374.328125 261.699219 "/>
<path fill-rule="nonzero" fill="rgb(0%, 39.215686%, 0%)" fill-opacity="1" d="M 376.792969 267.46875 C 376.792969 269.988281 373.011719 269.988281 373.011719 267.46875 C 373.011719 264.949219 376.792969 264.949219 376.792969 267.46875 "/>
<path fill-rule="nonzero" fill="rgb(0%, 39.215686%, 0%)" fill-opacity="1" d="M 372.058594 251.976562 C 372.058594 254.496094 368.28125 254.496094 368.28125 251.976562 C 368.28125 249.457031 372.058594 249.457031 372.058594 251.976562 "/>
<path fill-rule="nonzero" fill="rgb(0%, 39.215686%, 0%)" fill-opacity="1" d="M 377.320312 244.386719 C 377.320312 246.90625 373.539062 246.90625 373.539062 244.386719 C 373.539062 241.863281 377.320312 241.863281 377.320312 244.386719 "/>
<path fill-rule="nonzero" fill="rgb(0%, 39.215686%, 0%)" fill-opacity="1" d="M 375.449219 230.410156 C 375.449219 232.929688 371.667969 232.929688 371.667969 230.410156 C 371.667969 227.890625 375.449219 227.890625 375.449219 230.410156 "/>
<path fill-rule="nonzero" fill="rgb(0%, 39.215686%, 0%)" fill-opacity="1" d="M 378.816406 252.527344 C 378.816406 255.046875 375.035156 255.046875 375.035156 252.527344 C 375.035156 250.007812 378.816406 250.007812 378.816406 252.527344 "/>
<path fill-rule="nonzero" fill="rgb(0%, 39.215686%, 0%)" fill-opacity="1" d="M 376.082031 221.449219 C 376.082031 223.96875 372.304688 223.96875 372.304688 221.449219 C 372.304688 218.929688 376.082031 218.929688 376.082031 221.449219 "/>
<path fill-rule="nonzero" fill="rgb(0%, 39.215686%, 0%)" fill-opacity="1" d="M 371.6875 232.070312 C 371.6875 234.589844 367.90625 234.589844 367.90625 232.070312 C 367.90625 229.550781 371.6875 229.550781 371.6875 232.070312 "/>
<path fill-rule="nonzero" fill="rgb(0%, 39.215686%, 0%)" fill-opacity="1" d="M 379.96875 226.253906 C 379.96875 228.773438 376.1875 228.773438 376.1875 226.253906 C 376.1875 223.734375 379.96875 223.734375 379.96875 226.253906 "/>
<path fill-rule="nonzero" fill="rgb(0%, 39.215686%, 0%)" fill-opacity="1" d="M 374.75 196.03125 C 374.75 198.550781 370.96875 198.550781 370.96875 196.03125 C 370.96875 193.511719 374.75 193.511719 374.75 196.03125 "/>
<path fill-rule="nonzero" fill="rgb(0%, 39.215686%, 0%)" fill-opacity="1" d="M 377.109375 182.007812 C 377.109375 184.527344 373.332031 184.527344 373.332031 182.007812 C 373.332031 179.484375 377.109375 179.484375 377.109375 182.007812 "/>
<path fill-rule="nonzero" fill="rgb(0%, 39.215686%, 0%)" fill-opacity="1" d="M 371.359375 198.742188 C 371.359375 201.261719 367.578125 201.261719 367.578125 198.742188 C 367.578125 196.222656 371.359375 196.222656 371.359375 198.742188 "/>
<path fill-rule="nonzero" fill="rgb(0%, 39.215686%, 0%)" fill-opacity="1" d="M 370.945312 206.910156 C 370.945312 209.429688 367.164062 209.429688 367.164062 206.910156 C 367.164062 204.390625 370.945312 204.390625 370.945312 206.910156 "/>
<path fill-rule="nonzero" fill="rgb(0%, 39.215686%, 0%)" fill-opacity="1" d="M 373.34375 184.324219 C 373.34375 186.84375 369.566406 186.84375 369.566406 184.324219 C 369.566406 181.804688 373.34375 181.804688 373.34375 184.324219 "/>
<path fill-rule="nonzero" fill="rgb(0%, 39.215686%, 0%)" fill-opacity="1" d="M 380.132812 185.675781 C 380.132812 188.195312 376.351562 188.195312 376.351562 185.675781 C 376.351562 183.15625 380.132812 183.15625 380.132812 185.675781 "/>
<path fill-rule="nonzero" fill="rgb(0%, 39.215686%, 0%)" fill-opacity="1" d="M 375.132812 163.984375 C 375.132812 166.503906 371.355469 166.503906 371.355469 163.984375 C 371.355469 161.464844 375.132812 161.464844 375.132812 163.984375 "/>
<path fill-rule="nonzero" fill="rgb(0%, 39.215686%, 0%)" fill-opacity="1" d="M 374.339844 174.402344 C 374.339844 176.925781 370.5625 176.925781 370.5625 174.402344 C 370.5625 171.882812 374.339844 171.882812 374.339844 174.402344 "/>
<path fill-rule="nonzero" fill="rgb(0%, 39.215686%, 0%)" fill-opacity="1" d="M 378.433594 142.066406 C 378.433594 144.585938 374.65625 144.585938 374.65625 142.066406 C 374.65625 139.546875 378.433594 139.546875 378.433594 142.066406 "/>
<path fill-rule="nonzero" fill="rgb(0%, 39.215686%, 0%)" fill-opacity="1" d="M 378.933594 171.207031 C 378.933594 173.730469 375.152344 173.730469 375.152344 171.207031 C 375.152344 168.6875 378.933594 168.6875 378.933594 171.207031 "/>
<path fill-rule="nonzero" fill="rgb(0%, 39.215686%, 0%)" fill-opacity="1" d="M 379.035156 156.046875 C 379.035156 158.570312 375.257812 158.570312 375.257812 156.046875 C 375.257812 153.527344 379.035156 153.527344 379.035156 156.046875 "/>
<path fill-rule="nonzero" fill="rgb(0%, 39.215686%, 0%)" fill-opacity="1" d="M 373.3125 150.191406 C 373.3125 152.710938 369.53125 152.710938 369.53125 150.191406 C 369.53125 147.671875 373.3125 147.671875 373.3125 150.191406 "/>
<path fill-rule="nonzero" fill="rgb(0%, 39.215686%, 0%)" fill-opacity="1" d="M 373.734375 109.839844 C 373.734375 112.363281 369.953125 112.363281 369.953125 109.839844 C 369.953125 107.320312 373.734375 107.320312 373.734375 109.839844 "/>
<path fill-rule="nonzero" fill="rgb(0%, 39.215686%, 0%)" fill-opacity="1" d="M 376.195312 77.753906 C 376.195312 80.273438 372.417969 80.273438 372.417969 77.753906 C 372.417969 75.234375 376.195312 75.234375 376.195312 77.753906 "/>
<path fill-rule="nonzero" fill="rgb(0%, 39.215686%, 0%)" fill-opacity="1" d="M 377.25 120.710938 C 377.25 123.230469 373.472656 123.230469 373.472656 120.710938 C 373.472656 118.191406 377.25 118.191406 377.25 120.710938 "/>
<path fill-rule="nonzero" fill="rgb(0%, 39.215686%, 0%)" fill-opacity="1" d="M 376.863281 98.378906 C 376.863281 100.898438 373.085938 100.898438 373.085938 98.378906 C 373.085938 95.859375 376.863281 95.859375 376.863281 98.378906 "/>
<path fill-rule="nonzero" fill="rgb(0%, 39.215686%, 0%)" fill-opacity="1" d="M 372.941406 132.230469 C 372.941406 134.75 369.164062 134.75 369.164062 132.230469 C 369.164062 129.710938 372.941406 129.710938 372.941406 132.230469 "/>
<path fill-rule="nonzero" fill="rgb(0%, 39.215686%, 0%)" fill-opacity="1" d="M 373.527344 101.722656 C 373.527344 104.246094 369.746094 104.246094 369.746094 101.722656 C 369.746094 99.203125 373.527344 99.203125 373.527344 101.722656 "/>
<path fill-rule="nonzero" fill="rgb(0%, 39.215686%, 0%)" fill-opacity="1" d="M 378.046875 106.296875 C 378.046875 108.816406 374.265625 108.816406 374.265625 106.296875 C 374.265625 103.777344 378.046875 103.777344 378.046875 106.296875 "/>
<path fill-rule="nonzero" fill="rgb(0%, 39.215686%, 0%)" fill-opacity="1" d="M 378.46875 84.546875 C 378.46875 87.066406 374.6875 87.066406 374.6875 84.546875 C 374.6875 82.027344 378.46875 82.027344 378.46875 84.546875 "/>
<path fill-rule="nonzero" fill="rgb(100%, 64.705882%, 0%)" fill-opacity="1" d="M 365.902344 123.367188 C 365.902344 125.886719 362.121094 125.886719 362.121094 123.367188 C 362.121094 120.847656 365.902344 120.847656 365.902344 123.367188 "/>
<path fill-rule="nonzero" fill="rgb(100%, 64.705882%, 0%)" fill-opacity="1" d="M 386.445312 134.414062 C 386.445312 136.933594 382.664062 136.933594 382.664062 134.414062 C 382.664062 131.894531 386.445312 131.894531 386.445312 134.414062 "/>
<path fill-rule="nonzero" fill="rgb(100%, 64.705882%, 0%)" fill-opacity="1" d="M 386.671875 158.175781 C 386.671875 160.695312 382.890625 160.695312 382.890625 158.175781 C 382.890625 155.65625 386.671875 155.65625 386.671875 158.175781 "/>
<path fill-rule="nonzero" fill="rgb(100%, 64.705882%, 0%)" fill-opacity="1" d="M 386.820312 172.84375 C 386.820312 175.363281 383.039062 175.363281 383.039062 172.84375 C 383.039062 170.324219 386.820312 170.324219 386.820312 172.84375 "/>
<path fill-rule="nonzero" fill="rgb(100%, 64.705882%, 0%)" fill-opacity="1" d="M 385.207031 205.296875 C 385.207031 207.816406 381.429688 207.816406 381.429688 205.296875 C 381.429688 202.777344 385.207031 202.777344 385.207031 205.296875 "/>
<path fill-rule="nonzero" fill="rgb(100%, 64.705882%, 0%)" fill-opacity="1" d="M 364.820312 212.015625 C 364.820312 214.539062 361.039062 214.539062 361.039062 212.015625 C 361.039062 209.496094 364.820312 209.496094 364.820312 212.015625 "/>
<path fill-rule="nonzero" fill="rgb(100%, 64.705882%, 0%)" fill-opacity="1" d="M 364.976562 178.414062 C 364.976562 180.933594 361.195312 180.933594 361.195312 178.414062 C 361.195312 175.890625 364.976562 175.890625 364.976562 178.414062 "/>
<path fill-rule="nonzero" fill="rgb(100%, 64.705882%, 0%)" fill-opacity="1" d="M 362.800781 205.195312 C 362.800781 207.714844 359.019531 207.714844 359.019531 205.195312 C 359.019531 202.671875 362.800781 202.671875 362.800781 205.195312 "/>
<path fill-rule="nonzero" fill="rgb(100%, 64.705882%, 0%)" fill-opacity="1" d="M 386.371094 230.0625 C 386.371094 232.582031 382.589844 232.582031 382.589844 230.0625 C 382.589844 227.542969 386.371094 227.542969 386.371094 230.0625 "/>
<path fill-rule="nonzero" fill="rgb(100%, 64.705882%, 0%)" fill-opacity="1" d="M 363.851562 255.691406 C 363.851562 258.210938 360.074219 258.210938 360.074219 255.691406 C 360.074219 253.171875 363.851562 253.171875 363.851562 255.691406 "/>
<path fill-rule="nonzero" fill="rgb(100%, 64.705882%, 0%)" fill-opacity="1" d="M 385.691406 242.472656 C 385.691406 244.992188 381.910156 244.992188 381.910156 242.472656 C 381.910156 239.953125 385.691406 239.953125 385.691406 242.472656 "/>
<path fill-rule="nonzero" fill="rgb(100%, 64.705882%, 0%)" fill-opacity="1" d="M 363.917969 272.671875 C 363.917969 275.195312 360.136719 275.195312 360.136719 272.671875 C 360.136719 270.152344 363.917969 270.152344 363.917969 272.671875 "/>
<path fill-rule="nonzero" fill="rgb(100%, 64.705882%, 0%)" fill-opacity="1" d="M 385.847656 274.0625 C 385.847656 276.582031 382.066406 276.582031 382.066406 274.0625 C 382.066406 271.542969 385.847656 271.542969 385.847656 274.0625 "/>
<path fill-rule="nonzero" fill="rgb(100%, 64.705882%, 0%)" fill-opacity="1" d="M 386.6875 252.054688 C 386.6875 254.574219 382.90625 254.574219 382.90625 252.054688 C 382.90625 249.535156 386.6875 249.535156 386.6875 252.054688 "/>
<path fill-rule="nonzero" fill="rgb(100%, 64.705882%, 0%)" fill-opacity="1" d="M 384.6875 302.398438 C 384.6875 304.917969 380.910156 304.917969 380.910156 302.398438 C 380.910156 299.878906 384.6875 299.878906 384.6875 302.398438 "/>
<path fill-rule="nonzero" fill="rgb(100%, 64.705882%, 0%)" fill-opacity="1" d="M 366.957031 281.808594 C 366.957031 284.332031 363.179688 284.332031 363.179688 281.808594 C 363.179688 279.289062 366.957031 279.289062 366.957031 281.808594 "/>
<path fill-rule="nonzero" fill="rgb(100%, 64.705882%, 0%)" fill-opacity="1" d="M 366.960938 315.851562 C 366.960938 318.371094 363.179688 318.371094 363.179688 315.851562 C 363.179688 313.332031 366.960938 313.332031 366.960938 315.851562 "/>
<path fill-rule="nonzero" fill="rgb(100%, 64.705882%, 0%)" fill-opacity="1" d="M 366.53125 299.644531 C 366.53125 302.164062 362.75 302.164062 362.75 299.644531 C 362.75 297.125 366.53125 297.125 366.53125 299.644531 "/>
<path fill-rule="nonzero" fill="rgb(100%, 64.705882%, 0%)" fill-opacity="1" d="M 380.6875 325.714844 C 380.6875 328.234375 376.90625 328.234375 376.90625 325.714844 C 376.90625 323.195312 380.6875 323.195312 380.6875 325.714844 "/>
<path fill-rule="nonzero" fill="rgb(100%, 64.705882%, 0%)" fill-opacity="1" d="M 380.214844 318.792969 C 380.214844 321.316406 376.4375 321.316406 376.4375 318.792969 C 376.4375 316.273438 380.214844 316.273438 380.214844 318.792969 "/>
<path fill-rule="nonzero" fill="rgb(100%, 64.705882%, 0%)" fill-opacity="1" d="M 368.746094 328.996094 C 368.746094 331.515625 364.96875 331.515625 364.96875 328.996094 C 364.96875 326.476562 368.746094 326.476562 368.746094 328.996094 "/>
<path fill-rule="nonzero" fill="rgb(100%, 64.705882%, 0%)" fill-opacity="1" d="M 371.570312 326.394531 C 371.570312 328.914062 367.789062 328.914062 367.789062 326.394531 C 367.789062 323.875 371.570312 323.875 371.570312 326.394531 "/>
<path fill-rule="nonzero" fill="rgb(100%, 64.705882%, 0%)" fill-opacity="1" d="M 381.699219 88.84375 C 381.699219 91.363281 377.917969 91.363281 377.917969 88.84375 C 377.917969 86.324219 381.699219 86.324219 381.699219 88.84375 "/>
<path fill-rule="nonzero" fill="rgb(100%, 64.705882%, 0%)" fill-opacity="1" d="M 382.898438 92.078125 C 382.898438 94.597656 379.117188 94.597656 379.117188 92.078125 C 379.117188 89.558594 382.898438 89.558594 382.898438 92.078125 "/>
<path fill-rule="nonzero" fill="rgb(100%, 64.705882%, 0%)" fill-opacity="1" d="M 378.15625 92.097656 C 378.15625 94.617188 374.378906 94.617188 374.378906 92.097656 C 374.378906 89.574219 378.15625 89.574219 378.15625 92.097656 "/>
<path fill-rule="nonzero" fill="rgb(100%, 64.705882%, 0%)" fill-opacity="1" d="M 371.121094 88.539062 C 371.121094 91.058594 367.339844 91.058594 367.339844 88.539062 C 367.339844 86.019531 371.121094 86.019531 371.121094 88.539062 "/>
<path fill-rule="nonzero" fill="rgb(100%, 64.705882%, 0%)" fill-opacity="1" d="M 368.269531 89.925781 C 368.269531 92.445312 364.488281 92.445312 364.488281 89.925781 C 364.488281 87.40625 368.269531 87.40625 368.269531 89.925781 "/>
<path fill-rule="nonzero" fill="rgb(100%, 64.705882%, 0%)" fill-opacity="1" d="M 366.863281 105.941406 C 366.863281 108.460938 363.082031 108.460938 363.082031 105.941406 C 363.082031 103.421875 366.863281 103.421875 366.863281 105.941406 "/>
<path fill-rule="nonzero" fill="rgb(100%, 64.705882%, 0%)" fill-opacity="1" d="M 385.363281 103.015625 C 385.363281 105.539062 381.582031 105.539062 381.582031 103.015625 C 381.582031 100.496094 385.363281 100.496094 385.363281 103.015625 "/>
<path fill-rule="nonzero" fill="rgb(100%, 64.705882%, 0%)" fill-opacity="1" d="M 366.890625 112.992188 C 366.890625 115.511719 363.109375 115.511719 363.109375 112.992188 C 363.109375 110.472656 366.890625 110.472656 366.890625 112.992188 "/>
<path fill-rule="nonzero" fill="rgb(100%, 64.705882%, 0%)" fill-opacity="1" d="M 384.527344 114.5 C 384.527344 117.019531 380.746094 117.019531 380.746094 114.5 C 380.746094 111.980469 384.527344 111.980469 384.527344 114.5 "/>
<path fill-rule="nonzero" fill="rgb(100%, 64.705882%, 0%)" fill-opacity="1" d="M 385.046875 120.90625 C 385.046875 123.425781 381.265625 123.425781 381.265625 120.90625 C 381.265625 118.386719 385.046875 118.386719 385.046875 120.90625 "/>
<path fill-rule="nonzero" fill="rgb(100%, 64.705882%, 0%)" fill-opacity="1" d="M 366.058594 133.621094 C 366.058594 136.144531 362.277344 136.144531 362.277344 133.621094 C 362.277344 131.101562 366.058594 131.101562 366.058594 133.621094 "/>
<path fill-rule="nonzero" fill="rgb(100%, 64.705882%, 0%)" fill-opacity="1" d="M 385.320312 140.039062 C 385.320312 142.558594 381.539062 142.558594 381.539062 140.039062 C 381.539062 137.519531 385.320312 137.519531 385.320312 140.039062 "/>
<path fill-rule="nonzero" fill="rgb(100%, 64.705882%, 0%)" fill-opacity="1" d="M 386.726562 149.839844 C 386.726562 152.359375 382.945312 152.359375 382.945312 149.839844 C 382.945312 147.320312 386.726562 147.320312 386.726562 149.839844 "/>
<path fill-rule="nonzero" fill="rgb(100%, 64.705882%, 0%)" fill-opacity="1" d="M 387.578125 163.363281 C 387.578125 165.882812 383.796875 165.882812 383.796875 163.363281 C 383.796875 160.84375 387.578125 160.84375 387.578125 163.363281 "/>
<path fill-rule="nonzero" fill="rgb(100%, 64.705882%, 0%)" fill-opacity="1" d="M 383.644531 168.96875 C 383.644531 171.488281 379.863281 171.488281 379.863281 168.96875 C 379.863281 166.449219 383.644531 166.449219 383.644531 168.96875 "/>
<path fill-rule="nonzero" fill="rgb(100%, 64.705882%, 0%)" fill-opacity="1" d="M 361.109375 178.367188 C 361.109375 180.886719 357.328125 180.886719 357.328125 178.367188 C 357.328125 175.847656 361.109375 175.847656 361.109375 178.367188 "/>
<path fill-rule="nonzero" fill="rgb(100%, 64.705882%, 0%)" fill-opacity="1" d="M 387.496094 181.152344 C 387.496094 183.671875 383.714844 183.671875 383.714844 181.152344 C 383.714844 178.632812 387.496094 178.632812 387.496094 181.152344 "/>
<path fill-rule="nonzero" fill="rgb(100%, 64.705882%, 0%)" fill-opacity="1" d="M 386.546875 186.660156 C 386.546875 189.179688 382.765625 189.179688 382.765625 186.660156 C 382.765625 184.140625 386.546875 184.140625 386.546875 186.660156 "/>
<path fill-rule="nonzero" fill="rgb(100%, 64.705882%, 0%)" fill-opacity="1" d="M 362.863281 188.332031 C 362.863281 190.851562 359.082031 190.851562 359.082031 188.332031 C 359.082031 185.8125 362.863281 185.8125 362.863281 188.332031 "/>
<path fill-rule="nonzero" fill="rgb(100%, 64.705882%, 0%)" fill-opacity="1" d="M 364.800781 192.910156 C 364.800781 195.429688 361.019531 195.429688 361.019531 192.910156 C 361.019531 190.390625 364.800781 190.390625 364.800781 192.910156 "/>
<path fill-rule="nonzero" fill="rgb(100%, 64.705882%, 0%)" fill-opacity="1" d="M 389.414062 206.644531 C 389.414062 209.164062 385.632812 209.164062 385.632812 206.644531 C 385.632812 204.125 389.414062 204.125 389.414062 206.644531 "/>
<path fill-rule="nonzero" fill="rgb(100%, 64.705882%, 0%)" fill-opacity="1" d="M 386.835938 210.152344 C 386.835938 212.675781 383.054688 212.675781 383.054688 210.152344 C 383.054688 207.632812 386.835938 207.632812 386.835938 210.152344 "/>
<path fill-rule="nonzero" fill="rgb(100%, 64.705882%, 0%)" fill-opacity="1" d="M 364.914062 218.511719 C 364.914062 221.03125 361.132812 221.03125 361.132812 218.511719 C 361.132812 215.992188 364.914062 215.992188 364.914062 218.511719 "/>
<path fill-rule="nonzero" fill="rgb(100%, 64.705882%, 0%)" fill-opacity="1" d="M 363.898438 224.601562 C 363.898438 227.121094 360.117188 227.121094 360.117188 224.601562 C 360.117188 222.082031 363.898438 222.082031 363.898438 224.601562 "/>
<path fill-rule="nonzero" fill="rgb(100%, 64.705882%, 0%)" fill-opacity="1" d="M 364.964844 231.367188 C 364.964844 233.886719 361.183594 233.886719 361.183594 231.367188 C 361.183594 228.847656 364.964844 228.847656 364.964844 231.367188 "/>
<path fill-rule="nonzero" fill="rgb(100%, 64.705882%, 0%)" fill-opacity="1" d="M 388.414062 245.234375 C 388.414062 247.753906 384.632812 247.753906 384.632812 245.234375 C 384.632812 242.714844 388.414062 242.714844 388.414062 245.234375 "/>
<path fill-rule="nonzero" fill="rgb(100%, 64.705882%, 0%)" fill-opacity="1" d="M 385.890625 255.917969 C 385.890625 258.4375 382.109375 258.4375 382.109375 255.917969 C 382.109375 253.398438 385.890625 253.398438 385.890625 255.917969 "/>
<path fill-rule="nonzero" fill="rgb(100%, 64.705882%, 0%)" fill-opacity="1" d="M 388.378906 268.847656 C 388.378906 271.367188 384.601562 271.367188 384.601562 268.847656 C 384.601562 266.328125 388.378906 266.328125 388.378906 268.847656 "/>
<path fill-rule="nonzero" fill="rgb(100%, 64.705882%, 0%)" fill-opacity="1" d="M 388.53125 279.886719 C 388.53125 282.40625 384.75 282.40625 384.75 279.886719 C 384.75 277.367188 388.53125 277.367188 388.53125 279.886719 "/>
<path fill-rule="nonzero" fill="rgb(100%, 64.705882%, 0%)" fill-opacity="1" d="M 384.519531 281.675781 C 384.519531 284.195312 380.742188 284.195312 380.742188 281.675781 C 380.742188 279.15625 384.519531 279.15625 384.519531 281.675781 "/>
<path fill-rule="nonzero" fill="rgb(100%, 64.705882%, 0%)" fill-opacity="1" d="M 364.671875 288.703125 C 364.671875 291.222656 360.890625 291.222656 360.890625 288.703125 C 360.890625 286.179688 364.671875 286.179688 364.671875 288.703125 "/>
<path fill-rule="nonzero" fill="rgb(100%, 64.705882%, 0%)" fill-opacity="1" d="M 385.804688 292.554688 C 385.804688 295.074219 382.023438 295.074219 382.023438 292.554688 C 382.023438 290.035156 385.804688 290.035156 385.804688 292.554688 "/>
<path fill-rule="nonzero" fill="rgb(100%, 64.705882%, 0%)" fill-opacity="1" d="M 362.449219 297.75 C 362.449219 300.269531 358.667969 300.269531 358.667969 297.75 C 358.667969 295.230469 362.449219 295.230469 362.449219 297.75 "/>
<path fill-rule="nonzero" fill="rgb(100%, 64.705882%, 0%)" fill-opacity="1" d="M 361.902344 309.691406 C 361.902344 312.210938 358.125 312.210938 358.125 309.691406 C 358.125 307.171875 361.902344 307.171875 361.902344 309.691406 "/>
<path fill-rule="nonzero" fill="rgb(100%, 64.705882%, 0%)" fill-opacity="1" d="M 362.855469 316.214844 C 362.855469 318.734375 359.078125 318.734375 359.078125 316.214844 C 359.078125 313.695312 362.855469 313.695312 362.855469 316.214844 "/>
<path fill-rule="nonzero" fill="rgb(100%, 64.705882%, 0%)" fill-opacity="1" d="M 383.609375 316.089844 C 383.609375 318.609375 379.832031 318.609375 379.832031 316.089844 C 379.832031 313.570312 383.609375 313.570312 383.609375 316.089844 "/>
<path fill-rule="nonzero" fill="rgb(100%, 64.705882%, 0%)" fill-opacity="1" d="M 383.34375 325.984375 C 383.34375 328.507812 379.566406 328.507812 379.566406 325.984375 C 379.566406 323.464844 383.34375 323.464844 383.34375 325.984375 "/>
<path fill-rule="nonzero" fill="rgb(100%, 64.705882%, 0%)" fill-opacity="1" d="M 380.9375 332.589844 C 380.9375 335.109375 377.160156 335.109375 377.160156 332.589844 C 377.160156 330.066406 380.9375 330.066406 380.9375 332.589844 "/>
<path fill-rule="nonzero" fill="rgb(100%, 64.705882%, 0%)" fill-opacity="1" d="M 379.179688 330.328125 C 379.179688 332.847656 375.402344 332.847656 375.402344 330.328125 C 375.402344 327.808594 379.179688 327.808594 379.179688 330.328125 "/>
<path fill-rule="nonzero" fill="rgb(100%, 64.705882%, 0%)" fill-opacity="1" d="M 376.964844 335.734375 C 376.964844 338.253906 373.183594 338.253906 373.183594 335.734375 C 373.183594 333.214844 376.964844 333.214844 376.964844 335.734375 "/>
<path fill-rule="nonzero" fill="rgb(0%, 0%, 100%)" fill-opacity="1" d="M 365.601562 344.359375 L 381.800781 344.359375 L 381.800781 328.160156 L 365.601562 328.160156 Z M 365.601562 344.359375 "/>
<path fill-rule="nonzero" fill="rgb(100%, 0%, 0%)" fill-opacity="1" d="M 365.601562 92.238281 L 381.800781 92.238281 L 381.800781 76.039062 L 365.601562 76.039062 Z M 365.601562 92.238281 "/>
</svg>
